<?xml version="1.0" standalone="no"?><!DOCTYPE svg PUBLIC "-//W3C//DTD SVG 1.1//EN" "http://www.w3.org/Graphics/SVG/1.1/DTD/svg11.dtd"><svg t="1559033532625" class="icon" style="" viewBox="0 0 1024 1024" version="1.1" xmlns="http://www.w3.org/2000/svg" p-id="1416" xmlns:xlink="http://www.w3.org/1999/xlink" width="200" height="200"><defs><style type="text/css"></style></defs><path d="M838.08711111 295.13955555c-0.22755555-139.71911111-99.328-259.64088889-236.544-286.1511111C464.55466667-17.63555555 327.79377778 56.54755555 275.34222222 186.02666667s-5.80266667 277.95911111 111.16088889 354.19022222c2.38933333 1.36533333 3.98222222 3.86844445 3.98222222 6.71288889 0 2.73066667-1.47911111 5.34755555-3.98222222 6.71288889-84.992 30.94755555-159.40266667 85.67466667-214.12977778 157.696-60.75733333 80.21333333-93.52533333 178.06222222-93.184 278.64177778 0 17.63555555 14.336 31.97155555 31.97155556 31.97155555 17.63555555 0 31.97155555-14.336 31.97155556-31.97155555-0.56888889-221.184 178.06222222-401.18044445 399.36-402.20444445h6.03022222c159.85777778-2.61688889 288.19911111-132.55111111 288.88177778-292.40888889l0.68266666-0.22755556zM546.36088889 523.94666667c-108.65777778 0.68266667-202.63822222-75.66222222-224.36977778-182.15822222-21.73155555-106.496 34.92977778-213.56088889 135.28177778-255.43111112 100.23822222-41.87022222 216.17777778-7.05422222 276.82133333 83.17155556 60.52977778 90.22577778 48.81066667 210.71644445-27.98933333 287.63022222-42.32533333 42.66666667-99.78311111 66.67377778-159.744 66.78755556z m411.76177778 257.59288888H928.42666667v-68.94933333c2.16177778-38.68444445-17.29422222-75.43466667-50.51733334-95.45955555a104.54357333 104.54357333 0 0 0-107.97511111 0c-33.22311111 20.02488889-52.67911111 56.77511111-50.51733333 95.45955555v68.94933333h-29.696c-14.336 0-25.82755555 11.60533333-25.82755556 25.82755556v188.64355556c0 14.336 11.60533333 25.82755555 25.82755556 25.82755555h268.40177778c14.22222222 0 25.82755555-11.60533333 25.82755555-25.82755555V807.36711111c0-14.22222222-11.49155555-25.82755555-25.82755555-25.82755556z m-115.48444445 133.12v53.02044445c0 1.13777778-0.45511111 2.27555555-1.36533333 3.18577778-0.79644445 0.79644445-1.93422222 1.36533333-3.18577778 1.36533333h-27.42044444c-1.13777778 0-2.27555555-0.45511111-3.18577778-1.36533333-0.79644445-0.79644445-1.25155555-1.93422222-1.25155556-3.18577778v-53.02044445c-17.18044445-8.64711111-26.16888889-27.98933333-21.73155555-46.64888888 4.43733333-18.65955555 21.16266667-31.85777778 40.39111111-31.85777778s35.95377778 13.19822222 40.39111111 31.85777778c4.43733333 18.65955555-4.55111111 38.00177778-21.73155555 46.64888888h-0.91022223z m45.62488889-133.12H760.60444445V714.52444445c0-35.27111111 28.55822222-63.82933333 63.82933333-63.82933334s63.82933333 28.55822222 63.82933333 63.82933334v67.0151111z m0 0" p-id="1417"></path></svg>