<?xml version="1.0" standalone="no"?><!DOCTYPE svg PUBLIC "-//W3C//DTD SVG 1.1//EN" "http://www.w3.org/Graphics/SVG/1.1/DTD/svg11.dtd"><svg t="1559029050243" class="icon" style="" viewBox="0 0 1024 1024" version="1.1" xmlns="http://www.w3.org/2000/svg" p-id="6290" xmlns:xlink="http://www.w3.org/1999/xlink" width="200" height="200"><defs><style type="text/css"></style></defs><path d="M590.933333 634.666667h-153.6a8.533333 8.533333 0 0 0-8.533333 8.533333V934.4h170.666667v-291.2a8.533333 8.533333 0 0 0-8.533334-8.533333z" fill="#666666" p-id="6291"></path><path d="M935.982933 435.626667l-418.363733-351.048534c-0.0384-0.034133-0.085333-0.055467-0.128-0.085333-0.196267-0.157867-0.405333-0.277333-0.6144-0.418133-0.264533-0.1792-0.5248-0.3712-0.802133-0.516267-0.200533-0.1024-0.4096-0.170667-0.618667-0.260267-0.3072-0.128-0.605867-0.273067-0.9216-0.362666-0.213333-0.064-0.430933-0.085333-0.648533-0.132267-0.315733-0.068267-0.631467-0.145067-0.951467-0.174933-0.2688-0.0256-0.5376-0.004267-0.8064-0.008534-0.2688 0-0.5376-0.017067-0.8064 0.008534-0.32 0.029867-0.635733 0.110933-0.951467 0.174933-0.2176 0.046933-0.4352 0.068267-0.648533 0.132267-0.315733 0.093867-0.618667 0.234667-0.9216 0.362666-0.2048 0.0896-0.418133 0.1536-0.618667 0.260267-0.277333 0.145067-0.5376 0.337067-0.802133 0.516267-0.2048 0.136533-0.418133 0.260267-0.6144 0.418133-0.042667 0.034133-0.085333 0.0512-0.128 0.085333L88.277333 435.626667a8.5376 8.5376 0 0 0-1.053866 12.023466l16.456533 19.6096a8.533333 8.533333 0 0 0 12.023467 1.053867L170.666667 422.190933V925.866667a8.533333 8.533333 0 0 0 8.533333 8.533333h206.933333v-333.866667a8.533333 8.533333 0 0 1 8.533334-8.533333h238.933333a8.533333 8.533333 0 0 1 8.533333 8.533333V934.4H844.8a8.533333 8.533333 0 0 0 8.533333-8.533333V421.973333l55.223467 46.336a8.533333 8.533333 0 0 0 12.023467-1.053866l16.456533-19.6096a8.533333 8.533333 0 0 0-1.053867-12.0192z" fill="#666666" p-id="6292"></path></svg>