<?xml version="1.0" standalone="no"?><!DOCTYPE svg PUBLIC "-//W3C//DTD SVG 1.1//EN" "http://www.w3.org/Graphics/SVG/1.1/DTD/svg11.dtd"><svg t="1559027988193" class="icon" style="" viewBox="0 0 1024 1024" version="1.1" xmlns="http://www.w3.org/2000/svg" p-id="2143" xmlns:xlink="http://www.w3.org/1999/xlink" width="200" height="200"><defs><style type="text/css"></style></defs><path d="M189.87129361 244.79411255c37.67955679-21.86197505 79.50562234-37.98943703 125.04572734-46.75125357 216.34274306-41.01674209 424.72504803 101.25976405 465.84508455 317.60477576 34.86792001 183.99814445-63.28621702 361.9496238-226.42581175 436.51871009 19.04920391-1.20547379 37.99170724-2.91719993 56.93534651-6.55178308 236.79606154-44.84315534 392.57909015-273.17820123 347.73820505-509.87096833-9.36455267-48.66956861-26.30361146-93.81239053-49.57764608-134.62254526-89.37869913-157.59350876-272.25877266-248.48415891-460.40002125-212.81372459-106.49937277 20.15251759-196.48762025 77.78935577-259.16088437 156.48678898" fill="#5F77BA" p-id="2144"></path><path d="M59.98437495 597.87749259c37.48545491-63.07508923 100.45611538-110.43589118 178.25795662-125.15129361 143.99277268-27.10385402 282.63923766 67.30673218 309.95535535 211.10313434 10.57683713 56.12375281 2.51424046 111.34396863-19.45216337 159.61511667 84.74182652-65.10010329 130.89147987-174.22495598 109.63337683-286.28517038C608.54513611 398.55893938 455.69065851 294.56926661 297.08918241 324.29746623c-135.52835248 26.00167466-231.1625727 141.57501601-237.10480746 273.58002636" fill="#F5B037" p-id="2145"></path><path d="M193.90542853 791.34688869c16.92089543-61.67324334 80.60893758-97.94073903 142.37412423-81.42393893 50.99311332 13.80845929 84.14363085 59.75833442 84.84625687 110.14190097 3.0227646-6.95701121 6.25098064-13.8073234 8.16361933-21.36139751C452.96642459 711.84240069 401.58056862 622.46597022 314.92156142 598.6845458c-86.96548288-23.47494875-176.5405541 27.70318555-200.21981999 114.56423967-23.48289375 86.96094244 27.80648001 176.54509458 114.47229792 200.12447209 2.71401713 0.50398367 5.03415728 0.70035579 7.54953206 1.10331523-36.97806668-27.40465489-55.41545203-75.77001807-42.81814288-123.1296841" fill="#5F77BA" p-id="2146"></path></svg>