<?xml version="1.0" standalone="no"?><!DOCTYPE svg PUBLIC "-//W3C//DTD SVG 1.1//EN" "http://www.w3.org/Graphics/SVG/1.1/DTD/svg11.dtd"><svg t="1561702802406" class="icon" viewBox="0 0 1024 1024" version="1.1" xmlns="http://www.w3.org/2000/svg" p-id="2767" xmlns:xlink="http://www.w3.org/1999/xlink" width="200" height="200"><defs><style type="text/css"></style></defs><path d="M922.99714481 548.41579736c0 30.16492806-3.01649281 58.82160972-9.04947841 86.72416817 12.82009443 4.52473921 24.88606564 9.80360162 36.19791366 16.59071045 7.54123201-33.18142087 12.82009443-67.87108813 12.82009444-104.06900183 0-193.80966278-122.92208183-358.2085207-294.10804859-421.55486962-0.7541232 13.57421762-3.01649281 26.39431205-7.54123202 39.21440646 152.33288671 60.32985613 261.68075092 208.89212682 261.68075092 383.09458637z m-812.190688 87.47829137c-6.03298562-27.90255844-9.04947843-57.31336332-9.04947842-86.72416817 0-174.20245953 109.34786421-323.51885344 262.43487412-383.09458636-3.770616-12.82009443-6.78710881-25.64018885-7.54123203-39.21440648-171.94008995 63.34634892-294.10804859 227.74520685-294.10804859 421.55486964 0 35.44379047 4.52473921 70.13345775 12.82009444 103.31487862 10.55772482-6.78710881 22.62369604-12.06597121 35.44379048-15.83658725z m401.19354319-420.04662322c54.29687052 0 98.03601619-43.73914569 98.03601619-98.03601621s-43.73914569-98.03601619-98.03601619-98.03601618-98.03601619 43.73914569-98.03601619 98.03601618 43.73914569 98.03601619 98.03601619 98.03601621z m0-156.10350272c32.42729765 0 58.82160972 26.39431205 58.82160972 58.82160972s-26.39431205 58.82160972-58.82160972 58.82160972-58.82160972-26.39431205-58.82160972-58.82160972 26.39431205-58.82160972 58.82160972-58.82160972z m234.53231566 825.76490564c-66.36284173 46.0015153-147.05402429 73.90407375-234.53231566 73.90407373-87.47829138 0-168.16947393-27.14843525-234.53231566-73.90407373-9.04947843 9.80360162-18.09895683 19.60720323-29.41080486 27.14843526 73.90407375 54.29687052 165.15298113 85.97004496 263.94312052 85.97004496s190.03904677-32.42729765 263.94312052-85.97004496c-11.31184801-7.54123201-20.36132644-17.34483364-29.41080486-27.14843526z m-586.70785076-199.84264839c-54.29687052 0-98.03601619 43.73914569-98.03601619 98.03601619s43.73914569 98.03601619 98.03601619 98.03601619 98.03601619-43.73914569 98.03601619-98.03601619-43.73914569-98.03601619-98.03601619-98.03601619z m0 156.8576259c-32.42729765 0-58.82160972-26.39431205-58.82160971-58.82160971s26.39431205-58.82160972 58.82160971-58.82160972 58.82160972 26.39431205 58.8216097 58.82160972-26.39431205 58.82160972-58.8216097 58.82160971z m704.3510702-156.8576259c-54.29687052 0-98.03601619 43.73914569-98.03601619 98.03601619s43.73914569 98.03601619 98.03601619 98.03601619 98.03601619-43.73914569 98.03601619-98.03601619-43.73914569-98.03601619-98.03601619-98.03601619z m0 156.8576259c-32.42729765 0-58.82160972-26.39431205-58.8216097-58.82160971s26.39431205-58.82160972 58.8216097-58.82160972 58.82160972 26.39431205 58.82160971 58.82160972-26.39431205 58.82160972-58.82160971 58.82160971z" fill="" p-id="2768"></path></svg>