<?xml version="1.0" standalone="no"?><!DOCTYPE svg PUBLIC "-//W3C//DTD SVG 1.1//EN" "http://www.w3.org/Graphics/SVG/1.1/DTD/svg11.dtd"><svg t="1561793301267" class="icon" viewBox="0 0 1024 1024" version="1.1" xmlns="http://www.w3.org/2000/svg" p-id="1923" xmlns:xlink="http://www.w3.org/1999/xlink" width="200" height="200"><defs><style type="text/css"></style></defs><path d="M540.44444445 86.81244445v-24.91733334h108.08888888v-56.88888889H375.46666667v56.88888889h108.08888888v24.91733334c-244.39466667 14.67733333-438.04444445 217.54311111-438.04444444 465.57866666 0 257.59288889 208.896 466.48888889 466.48888889 466.48888889s466.48888889-208.896 466.48888889-466.48888889c0-248.03555555-193.64977778-450.90133333-438.04444444-465.57866666z m261.23377777 755.25688888c-37.66044445 37.66044445-81.46488889 67.12888889-130.16177777 87.83644445-50.51733333 21.39022222-104.10666667 32.19911111-159.40266667 32.19911111s-108.99911111-10.80888889-159.40266667-32.19911111c-48.81066667-20.59377778-92.61511111-50.176-130.16177778-87.83644445-37.66044445-37.66044445-67.12888889-81.46488889-87.83644444-130.16177778-21.39022222-50.51733333-32.19911111-104.10666667-32.19911111-159.40266666s10.80888889-108.99911111 32.19911111-159.40266667c20.59377778-48.81066667 50.176-92.61511111 87.83644444-130.16177777s81.46488889-67.12888889 130.16177778-87.83644445c50.51733333-21.39022222 104.10666667-32.19911111 159.40266667-32.19911111s108.99911111 10.80888889 159.40266667 32.19911111c48.69688889 20.59377778 92.50133333 50.06222222 130.16177777 87.72266667s67.12888889 81.46488889 87.83644445 130.16177778c21.39022222 50.51733333 32.19911111 104.10666667 32.19911111 159.40266666s-10.80888889 108.99911111-32.19911111 159.40266667c-20.70755555 48.81066667-50.28977778 92.61511111-87.83644445 130.27555555zM540.44444445 221.75288889h-56.8888889v-56.88888889h56.8888889v56.88888889z m-56.8888889 661.39022222h56.8888889v56.88888889h-56.8888889v-56.88888889zM124.47288889 524.06044445h56.88888889v56.88888888h-56.88888889v-56.88888888z m775.05422222 0v56.88888888h-56.88888889v-56.88888888h56.88888889z m-379.22133333 32.99555555l188.75733333 79.64444445-22.07288889 52.45155555-214.35733333-90.45333333-84.30933334-311.296 54.95466667-14.90488889 77.02755556 284.55822222z" fill="" p-id="1924"></path></svg>