<?xml version="1.0" standalone="no"?><!DOCTYPE svg PUBLIC "-//W3C//DTD SVG 1.1//EN" "http://www.w3.org/Graphics/SVG/1.1/DTD/svg11.dtd"><svg t="1559033589439" class="icon" style="" viewBox="0 0 1099 1024" version="1.1" xmlns="http://www.w3.org/2000/svg" p-id="1421" xmlns:xlink="http://www.w3.org/1999/xlink" width="214.6484375" height="200"><defs><style type="text/css"></style></defs><path d="M973.20918132 105.08768919c-45.09028308 0-81.69668017 36.60639708-81.69668017 81.69668016 0 15.08246403 4.08483399 29.22227406 11.15473901 41.1625581L670.9314647 553.94810307c-5.18459701-1.09976302-10.52630302-1.57108999-15.86800901-1.57108999-16.33933604 0-31.73601807 4.87037901-44.4618471 13.19715602l-161.9793793-104.16326721c0-0.628436 0-1.41398101 0-2.04241699 0-45.09028308-36.60639708-81.69668017-81.69668018-81.69668016-45.09028308 0-81.69668017 36.60639708-81.69668017 81.69668016 0 12.72582902 2.82796201 24.82322205 8.16966803 35.66374307L132.51892064 739.80805046c-4.24194301-0.628436-8.64099502-1.09976302-13.04004702-1.09976301-45.09028308 0-81.69668017 36.60639708-81.69668016 81.69668017 0 45.09028308 36.60639708 81.69668017 81.69668016 81.69668013s81.69668017-36.60639708 81.69668016-81.69668013c0-16.18222702-4.71327001-31.10758207-12.72582901-43.8334111l157.1090003-238.64857146c6.91279601 1.885308 14.13981003 2.82796201 21.68104203 2.82796199 19.79573404 0 38.02037807-7.06990501 52.16018812-18.85308003l155.2236923 99.7642152c-0.628436 3.92772502-0.94265401 8.01255901-0.94265402 12.09739302 0 45.09028308 36.60639708 81.69668017 81.69668019 81.69668016s81.69668017-36.60639708 81.69668017-81.69668016c0-15.08246403-4.08483399-29.22227406-11.15473904-41.16255809l231.89288447-326.00117565c5.18459701 1.09976302 10.52630302 1.57108999 15.86800903 1.57109002 45.09028308 0 81.69668017-36.60639708 81.69668015-81.69668016S1018.29946441 105.08768919 973.20918132 105.08768919z" p-id="1422"></path></svg>