<?xml version="1.0" standalone="no"?><!DOCTYPE svg PUBLIC "-//W3C//DTD SVG 1.1//EN" "http://www.w3.org/Graphics/SVG/1.1/DTD/svg11.dtd"><svg t="1559033666559" class="icon" style="" viewBox="0 0 1024 1024" version="1.1" xmlns="http://www.w3.org/2000/svg" p-id="1416" xmlns:xlink="http://www.w3.org/1999/xlink" width="200" height="200"><defs><style type="text/css"></style></defs><path d="M482.48452741 531.28862025c-142.5286637 0-258.38983902-115.99062914-258.38983902-258.64874667s115.99062914-258.64874667 258.38983902-258.64874667c142.5286637 0 258.38983902 115.99062914 258.38983901 258.64874667s-115.86117531 258.64874667-258.38983901 258.64874667z m0-452.57057975c-106.79940741 0-193.66292543 86.99297185-193.66292544 193.92183308 0 106.92886124 86.86351803 193.92183309 193.66292544 193.92183309s193.66292543-86.99297185 193.66292542-193.92183309c0-106.92886124-86.86351803-193.92183309-193.66292542-193.92183308z" fill="" p-id="1417"></path><path d="M487.53322667 1007.80815803H15.41511902v-32.36345679c0-135.27924939 48.28627753-262.66181531 135.79706468-358.71655507 42.8492168-46.99173925 92.81839408-83.88608 148.48353977-109.6473916 57.86586075-26.79694222 119.35642864-40.38959408 182.78880394-40.38959407v64.72691358c-106.92886124 0-207.64393876 45.82665482-283.50388149 128.93601184-69.64615902 76.37775803-110.94192987 175.66884347-117.80298272 282.72715853h406.4850173v64.72691358z" fill="" p-id="1418"></path><path d="M749.93613431 947.61212839c-100.97398518 0-183.04771161-82.20318025-183.04771159-183.04771159 0-100.97398518 82.20318025-183.04771161 183.04771159-183.04771162 100.97398518 0 183.04771161 82.20318025 183.04771161 183.04771162 0.12945383 100.97398518-82.07372642 183.04771161-183.04771161 183.04771159z m0-327.38872889c-79.6141037 0-144.21156347 64.72691358-144.21156345 144.21156347 0 79.6141037 64.72691358 144.21156347 144.21156345 144.21156345 79.48464987 0 144.21156347-64.72691358 144.21156347-144.21156345 0.12945383-79.48464987-64.59745975-144.21156347-144.21156347-144.21156347z" fill="" p-id="1419"></path><path d="M749.93613431 764.5644168m-64.98582122 0a64.98582124 64.98582124 0 1 0 129.97164246 0 64.98582124 64.98582124 0 1 0-129.97164246 0Z" fill="" p-id="1420"></path><path d="M641.58328098 875.37689283l-53.59388445 92.94784792 64.98582125 37.54160986 53.33497679-92.43003258c-24.72568098-7.37886815-46.73283161-20.58315852-64.72691359-38.0594252zM856.99444939 652.32794864l55.14733036-95.40747061-64.98582123-37.54160988-55.27678421 95.7958321c24.72568098 6.99050667 46.99173925 19.93588939 65.11527508 37.15324839zM793.6915279 913.30686419l53.33497679 92.43003261 64.98582123-37.54160989-53.72333827-92.94784789c-17.86462815 17.6057205-39.87177876 30.81001086-64.59745975 38.05942517zM905.02181925 764.5644168c0 12.16865975-1.4239921 24.07841185-4.14252245 35.59980245H1009.1026963v-74.95376592h-109.1295763c3.23634569 12.55702124 5.04869925 25.76131161 5.04869925 39.35396347zM594.85044939 764.5644168c0-13.59265185 1.81235358-26.79694222 5.04869925-39.35396347h-109.12957629v74.95376592h108.09394568c-2.58907653-11.52139061-4.01306864-23.43114272-4.01306864-35.59980245zM708.12254815 615.17470025l-55.2767842-95.7958321-64.98582123 37.54160988 55.01787653 95.40747061c18.25298963-17.21735902 40.5190479-30.16274173 65.2447289-37.15324839z" fill="" p-id="1421"></path></svg>