<?xml version="1.0" standalone="no"?><!DOCTYPE svg PUBLIC "-//W3C//DTD SVG 1.1//EN" "http://www.w3.org/Graphics/SVG/1.1/DTD/svg11.dtd"><svg t="1559270898058" class="icon" style="" viewBox="0 0 1024 1024" version="1.1" xmlns="http://www.w3.org/2000/svg" p-id="2583" xmlns:xlink="http://www.w3.org/1999/xlink" width="200" height="200"><defs><style type="text/css"></style></defs><path d="M917.088 870.658 110.735 870.658c-4.705 0-46.745-1.01-74.132-35.87-24.917-31.71-25.637-63.86-25.637-67.425L10.966 252.289l0.065-0.975c0.242-3.615 3.002-36.135 25.39-65.237 25.675-33.377 69.412-34.342 74.315-34.342l809.883 0c4.495 0 44.79 1.098 75.59 39.01 20.075 24.712 23.98 59.312 24.365 63.175l0.145 1.49-0.01 1.497-2.075 508.601c1.34 11.61 3.51 51.59-25.37 78.07C964.553 869.893 921.863 870.658 917.088 870.658zM111.035 815.088l805.933 0c6.35-0.08 26.54-1.35 36.635-10.61 8.085-7.41 11.375-29.295 10.865-32.48l-0.375-2.365 0.01-2.39-0.01-508.739c-0.9-6.437-2.21-22.065-9.27-30.747-12.77-15.722-32.8-20.337-34.665-20.46l-809.22 0c-5.17 0.128-24.23 3.512-31.125 12.477-10.337 13.435-12.877 31.697-13.285 34.885l0 512.329c0.085 1.655 1.177 18.455 13.095 33.62C89.305 812.933 109.665 815.028 111.035 815.088zM187.185 716.073l-39.56-1.635c0.087-2.095 2.367-51.915 27.43-102.225 23.9-47.975 73.22-105.165 172.435-105.165 97.592 0 145.652 57.325 168.785 105.41 24.19 50.29 26.065 100.04 26.13 102.14l-39.57 1.28c-0.015-0.4-1.83-44.47-22.742-87.28-26.552-54.38-71.167-81.95-132.602-81.95-62.977 0-108.89 27.645-136.47 82.17C189.382 671.608 187.205 715.638 187.185 716.073zM345.012 536.119c-65.082 0-118.03-52.942-118.03-118.022 0-65.082 52.947-118.03 118.03-118.03 65.08 0 118.027 52.947 118.027 118.03C463.039 483.176 410.094 536.119 345.012 536.119zM345.012 339.659c-43.25 0-78.437 35.187-78.437 78.437 0 43.247 35.185 78.437 78.437 78.437 43.247 0 78.435-35.187 78.435-78.437C423.449 374.847 388.262 339.659 345.012 339.659zM592.738 311.364l273.499 0 0 50.307L592.738 361.671 592.738 311.364zM594.543 486.814l273.494 0 0 50.31L594.543 537.124 594.543 486.814zM633.558 660.343l235.284 0 0 50.31L633.558 710.653 633.558 660.343z" p-id="2584"></path></svg>